<?xml version="1.0" encoding="utf-8"?>
<!-- Generator: Adobe Illustrator 19.0.1, SVG Export Plug-In . SVG Version: 6.00 Build 0)  -->
<svg version="1.1" id="Vrstva_1" xmlns="http://www.w3.org/2000/svg" xmlns:xlink="http://www.w3.org/1999/xlink" x="0px" y="0px"
	 viewBox="0 0 538.7 194.8" style="enable-background:new 0 0 538.7 194.8;" xml:space="preserve">
<style type="text/css">
	.st0{fill:#FFFFFF;}
</style>
<g>
	<rect y="137.4" class="st0" width="538.7" height="8.6"/>
	<path class="st0" d="M1.2,194h24.1v-3.5H5v-7.8h12.6v-3.5H5v-6.1h19.2v-3.6h-23V194L1.2,194z M30.8,194h22.1v-3.5H34.6v-21h-3.8
		V194L30.8,194z M57.2,194h24.1v-3.5H61v-7.8h12.6v-3.5H61v-6.1h19.2v-3.6h-23V194L57.2,194z M112.7,188l-3.1-2.1
		c-2.5,3.5-5.9,5.3-10.2,5.3c-1.6,0-3-0.2-4.4-0.7c-1.3-0.5-2.5-1.1-3.4-2c-1-0.8-1.7-1.8-2.3-3c-0.5-1.2-0.8-2.4-0.8-3.7
		c0-1.3,0.3-2.6,0.8-3.7c0.5-1.2,1.3-2.2,2.3-3c1-0.8,2.1-1.5,3.4-2c1.3-0.5,2.8-0.7,4.4-0.7c2.1,0,3.9,0.4,5.6,1.1
		c1.6,0.8,3,1.8,4,3.2l3.1-2.1c-1.3-1.8-3.1-3.3-5.3-4.3c-2.2-1-4.6-1.5-7.3-1.5c-2.2,0-4.2,0.3-6,1c-1.8,0.7-3.4,1.6-4.7,2.7
		c-1.3,1.2-2.3,2.5-3.1,4.1c-0.7,1.6-1.1,3.3-1.1,5.2c0,1.8,0.4,3.6,1.1,5.2c0.7,1.6,1.7,3,3.1,4.1c1.3,1.2,2.9,2.1,4.7,2.7
		c1.8,0.6,3.8,1,6,1c2.9,0,5.5-0.6,7.8-1.7C109.6,191.9,111.4,190.2,112.7,188L112.7,188z M125.1,194h3.8v-21.1h10.4v-3.4h-24.6v3.4
		h10.4V194L125.1,194z M147,183.3h10.7l6.9,10.7h4.2l-6.8-10.8c1.9-0.3,3.4-1.1,4.4-2.4c1.1-1.3,1.6-2.8,1.6-4.5
		c0-2.2-0.7-3.8-2.1-5c-1.4-1.2-3.4-1.8-5.9-1.8h-16.9V194h3.8V183.3L147,183.3z M147,179.7v-6.7H160c2.7,0,4.1,1.1,4.1,3.3
		c0,2.2-1.4,3.4-4.1,3.4H147L147,179.7z M175,194.1h3.9v-24.7H175V194.1L175,194.1z M213.4,188l-3.1-2.1c-2.5,3.5-5.9,5.3-10.2,5.3
		c-1.6,0-3-0.2-4.4-0.7c-1.3-0.5-2.5-1.1-3.4-2c-1-0.8-1.7-1.8-2.3-3c-0.5-1.2-0.8-2.4-0.8-3.7c0-1.3,0.3-2.6,0.8-3.7
		c0.5-1.2,1.3-2.2,2.3-3c1-0.8,2.1-1.5,3.4-2c1.3-0.5,2.8-0.7,4.4-0.7c2.1,0,3.9,0.4,5.6,1.1c1.6,0.8,3,1.8,4,3.2l3.1-2.1
		c-1.3-1.8-3.1-3.3-5.3-4.3c-2.2-1-4.6-1.5-7.3-1.5c-2.2,0-4.2,0.3-6,1c-1.8,0.7-3.4,1.6-4.7,2.7c-1.3,1.2-2.3,2.5-3.1,4.1
		c-0.7,1.6-1.1,3.3-1.1,5.2c0,1.8,0.4,3.6,1.1,5.2c0.7,1.6,1.7,3,3.1,4.1c1.3,1.2,2.9,2.1,4.7,2.7c1.8,0.6,3.8,1,6,1
		c2.9,0,5.5-0.6,7.8-1.7C210.2,191.9,212,190.2,213.4,188L213.4,188z M216.3,194h4.1l3.2-6.2h13l3.2,6.2h4.1l-12.6-24.6h-2.4
		L216.3,194L216.3,194z M225.2,184.5l4.8-9.4l4.8,9.4H225.2L225.2,184.5z M247.4,194h22.1v-3.5h-18.3v-21h-3.8V194L247.4,194z
		 M291.3,190.9c2,1.3,4.2,2.2,6.5,2.9c2.3,0.7,4.7,1,7,1c1.7,0,3.2-0.2,4.6-0.6c1.4-0.4,2.5-1,3.4-1.7c0.9-0.7,1.7-1.6,2.1-2.6
		c0.5-1,0.7-2,0.7-3.1c0-5.3-3.9-7.9-11.8-7.9c-2.6,0-4.5-0.2-5.8-0.6c-1.3-0.4-1.9-1.2-1.9-2.4c0-1,0.5-1.9,1.6-2.5
		c1.1-0.7,2.6-1,4.6-1c1.6,0,3.2,0.3,5,0.8c1.7,0.5,3.4,1.4,5,2.4l1.9-3.2c-3.7-2.4-7.7-3.5-11.9-3.5c-3.2,0-5.7,0.7-7.4,2
		c-1.8,1.3-2.7,3-2.7,5c0,1.3,0.3,2.4,0.8,3.2c0.5,0.8,1.3,1.5,2.3,1.9c1,0.5,2.2,0.8,3.7,1c1.5,0.2,3.1,0.3,5,0.3
		c2.6,0.1,4.5,0.4,5.8,1.1c1.3,0.6,1.9,1.7,1.9,3.2c0,1.3-0.6,2.5-1.9,3.4c-1.3,0.9-3.1,1.4-5.4,1.4c-1.8,0-3.6-0.3-5.6-0.9
		c-2-0.6-3.9-1.5-5.6-2.7L291.3,190.9L291.3,190.9z M335.5,194.8c2.3,0,4.3-0.3,6.2-1s3.4-1.6,4.7-2.8c1.3-1.2,2.3-2.6,3.1-4.1
		c0.7-1.6,1.1-3.3,1.1-5.1c0-1.8-0.4-3.6-1.1-5.1c-0.7-1.6-1.7-2.9-3.1-4.1c-1.3-1.2-2.9-2.1-4.7-2.7c-1.8-0.7-3.9-1-6.2-1
		c-2.2,0-4.3,0.3-6.1,1c-1.8,0.7-3.4,1.6-4.7,2.7c-1.3,1.2-2.3,2.5-3.1,4.1c-0.7,1.6-1.1,3.3-1.1,5.1c0,1.8,0.4,3.5,1.1,5.1
		c0.7,1.6,1.7,3,3.1,4.2c1.3,1.2,2.9,2.1,4.7,2.8C331.2,194.5,333.3,194.8,335.5,194.8L335.5,194.8z M335.5,191.2
		c-1.7,0-3.2-0.2-4.6-0.7c-1.4-0.5-2.5-1.2-3.5-2c-1-0.8-1.7-1.8-2.2-3s-0.8-2.4-0.8-3.7c0-1.3,0.3-2.6,0.8-3.7
		c0.5-1.1,1.3-2.1,2.2-3c1-0.8,2.1-1.5,3.5-2c1.4-0.5,2.9-0.7,4.6-0.7s3.2,0.2,4.6,0.7c1.4,0.5,2.5,1.2,3.5,2c1,0.8,1.7,1.8,2.2,3
		c0.5,1.2,0.8,2.4,0.8,3.7c0,1.3-0.3,2.5-0.8,3.7c-0.5,1.2-1.3,2.2-2.2,3c-1,0.8-2.2,1.5-3.5,2C338.7,190.9,337.2,191.2,335.5,191.2
		L335.5,191.2z M356.8,194h22.1v-3.5h-18.3v-21h-3.8V194L356.8,194z M383.3,169.5v16.7c0,3,0.9,5.2,2.8,6.5c1.9,1.3,5,2,9.3,2
		c4.3,0,7.4-0.7,9.3-2c1.9-1.3,2.9-3.5,2.9-6.6v-16.7h-3.8v15.7c0,1.2-0.1,2.2-0.4,3c-0.3,0.8-0.7,1.4-1.3,1.8
		c-0.6,0.5-1.5,0.8-2.6,0.9c-1.1,0.2-2.4,0.3-4,0.3c-1.6,0-3-0.1-4-0.3c-1.1-0.2-1.9-0.5-2.6-0.9c-0.6-0.5-1.1-1.1-1.3-1.8
		c-0.3-0.8-0.4-1.8-0.4-3v-15.7H383.3L383.3,169.5z M421.8,194h3.8v-21.1H436v-3.4h-24.6v3.4h10.4V194L421.8,194z M439.9,194.1h3.9
		v-24.7h-3.9V194.1L439.9,194.1z M465.2,194.8c2.3,0,4.3-0.3,6.2-1c1.8-0.7,3.4-1.6,4.7-2.8c1.3-1.2,2.3-2.6,3.1-4.1
		c0.7-1.6,1.1-3.3,1.1-5.1c0-1.8-0.4-3.6-1.1-5.1c-0.7-1.6-1.7-2.9-3.1-4.1c-1.3-1.2-2.9-2.1-4.7-2.7c-1.8-0.7-3.9-1-6.2-1
		c-2.2,0-4.3,0.3-6.1,1c-1.8,0.7-3.4,1.6-4.7,2.7c-1.3,1.2-2.3,2.5-3.1,4.1c-0.7,1.6-1.1,3.3-1.1,5.1c0,1.8,0.4,3.5,1.1,5.1
		c0.7,1.6,1.7,3,3.1,4.2c1.3,1.2,2.9,2.1,4.7,2.8C460.9,194.5,462.9,194.8,465.2,194.8L465.2,194.8z M465.2,191.2
		c-1.7,0-3.2-0.2-4.6-0.7c-1.4-0.5-2.5-1.2-3.5-2c-1-0.8-1.7-1.8-2.2-3c-0.5-1.1-0.8-2.4-0.8-3.7c0-1.3,0.3-2.6,0.8-3.7
		c0.5-1.1,1.3-2.1,2.2-3c1-0.8,2.1-1.5,3.5-2c1.4-0.5,2.9-0.7,4.6-0.7c1.7,0,3.2,0.2,4.6,0.7c1.4,0.5,2.5,1.2,3.5,2
		c1,0.8,1.7,1.8,2.2,3c0.5,1.2,0.8,2.4,0.8,3.7c0,1.3-0.3,2.5-0.8,3.7c-0.5,1.2-1.3,2.2-2.2,3c-1,0.8-2.2,1.5-3.5,2
		C468.4,190.9,466.9,191.2,465.2,191.2L465.2,191.2z M486.6,194h3.8v-17.2l15.6,17.2h2v-24.6h-3.8v17.3l-15.6-17.3h-2V194L486.6,194
		z M514.2,190.9c2,1.3,4.2,2.2,6.5,2.9c2.3,0.7,4.7,1,7,1c1.7,0,3.2-0.2,4.6-0.6c1.4-0.4,2.5-1,3.4-1.7c0.9-0.7,1.7-1.6,2.1-2.6
		c0.5-1,0.7-2,0.7-3.1c0-5.3-3.9-7.9-11.8-7.9c-2.6,0-4.5-0.2-5.8-0.6c-1.3-0.4-1.9-1.2-1.9-2.4c0-1,0.5-1.9,1.6-2.5
		c1.1-0.7,2.6-1,4.6-1c1.6,0,3.2,0.3,5,0.8c1.7,0.5,3.4,1.4,5,2.4l1.9-3.2c-3.7-2.4-7.7-3.5-11.9-3.5c-3.2,0-5.7,0.7-7.4,2
		c-1.8,1.3-2.7,3-2.7,5c0,1.3,0.3,2.4,0.8,3.2c0.5,0.8,1.3,1.5,2.3,1.9c1,0.5,2.2,0.8,3.7,1c1.5,0.2,3.1,0.3,5,0.3
		c2.6,0.1,4.5,0.4,5.8,1.1c1.3,0.6,1.9,1.7,1.9,3.2c0,1.3-0.6,2.5-1.9,3.4c-1.3,0.9-3.1,1.4-5.4,1.4c-1.8,0-3.6-0.3-5.6-0.9
		c-2-0.6-3.9-1.5-5.6-2.7L514.2,190.9z"/>
	<g>
		<path class="st0" d="M459.2,102c6.4,5,13.2,8.7,20.2,11c7,2.3,14.6,3.5,22.8,3.5c5.8,0,11-0.7,15.5-2.1c4.5-1.4,8.3-3.3,11.4-5.7
			s5.4-5.2,7-8.4c1.6-3.2,2.4-6.6,2.4-10.2c0-6.3-2.4-11.7-7.1-16.2c-4.7-4.5-11.5-7.2-20.1-8.3c-3.8-0.4-7.3-0.7-10.7-0.8
			c-3.4-0.2-6.5-0.4-9.3-0.7c-2.9-0.3-5.5-0.8-7.8-1.4c-2.3-0.6-4.4-1.6-6.1-2.9c-2.7-2-4-4.5-4-7.3c0-3.5,1.9-6.5,5.8-9
			c3.9-2.5,9.1-3.8,15.6-3.8c11.9,0,23.1,4.1,33.4,12.4l6-8.6c-6-4.4-12.4-7.7-19-10c-6.6-2.3-13.5-3.4-20.5-3.4
			c-4.9,0-9.3,0.6-13.2,1.8c-3.9,1.2-7.3,2.8-10.1,4.9c-2.8,2.1-5,4.5-6.4,7.3c-1.5,2.8-2.2,5.7-2.2,8.9c0,7.6,3.9,13.2,11.8,17
			c2.1,1,4.5,1.8,7,2.4c2.5,0.6,5.2,1,8,1.3c2.9,0.3,5.8,0.6,9,0.8s6.5,0.5,10,0.8c6.4,0.5,11.3,2.1,14.5,4.9c3.2,2.8,4.8,6,4.8,9.8
			c0,2.4-0.6,4.7-1.8,6.8c-1.2,2.1-2.9,3.9-5.1,5.5c-2.2,1.6-4.9,2.8-8,3.7c-3.2,0.9-6.7,1.3-10.7,1.3c-6.1,0-12.3-1.2-18.6-3.5
			c-6.3-2.3-12.4-5.8-18.3-10.4L459.2,102L459.2,102z M294.5,114.4h64.1v-9.5h-53.9v-73h-10.3V114.4L294.5,114.4z M152.4,114.4h10.3
			v-73h34.8v-9.5h-79.8v9.5h34.8V114.4L152.4,114.4z M37.1,114.4h10.3V52.7l53.7,61.7h5.2V31.8H96v61.7L42.5,31.8h-5.4V114.4z"/>
		<g>
			<rect x="207.9" y="105.8" class="st0" width="69.6" height="8.6"/>
			<rect x="207.9" y="31.8" class="st0" width="69.6" height="8.6"/>
		</g>
		<rect x="207.9" y="68.8" class="st0" width="69.6" height="8.6"/>
		<g>
			<rect x="375.1" y="105.8" class="st0" width="69.6" height="8.6"/>
			<rect x="375.1" y="31.8" class="st0" width="69.6" height="8.6"/>
		</g>
		<rect x="375.1" y="68.8" class="st0" width="69.6" height="8.6"/>
		<path class="st0" d="M8.3,18.4c2.3,0,4.3-0.9,6-2.6s2.5-4,2.5-6.7s-0.8-5-2.5-6.6C12.6,0.8,10.6,0,8.3,0C5.9,0,4,0.8,2.4,2.5
			C0.8,4.1,0,6.3,0,9.1s0.8,5,2.4,6.7C4,17.5,5.9,18.4,8.3,18.4L8.3,18.4z M2.3,31.8l-1.7,82.5h15.3l-1.7-82.5H2.3z"/>
	</g>
</g>
</svg>
